<?xml version="1.0" encoding="utf-8"?>
<!-- Generator: Adobe Illustrator 24.1.1, SVG Export Plug-In . SVG Version: 6.00 Build 0)  -->
<svg version="1.1" id="Layer_1" xmlns="http://www.w3.org/2000/svg" xmlns:xlink="http://www.w3.org/1999/xlink" x="0px" y="0px"
	 viewBox="0 0 512 512" style="enable-background:new 0 0 512 512;" xml:space="preserve">
<g>
	<path d="M390.4,316.8c-4-3-6.4-7.8-6.4-12.8V199.3c0-70.5-57.1-127.8-127.6-128c-70.5-0.2-127.8,56.8-128,127.3l-0.3,106
		c0,5.1-2.4,9.8-6.5,12.8L64,360.1V416h384v-56L390.4,316.8z M177.6,448H48c-8.8,0-16-7.2-16-16v-80c0-5.1,2.4-9.8,6.5-12.9
		L96,296.5l0.3-98C96.6,115.9,159.5,48.1,240,40.1V0h32v40.1c80.8,8,144,76.3,144,159.2V296l57.6,43.2c4,3,6.4,7.8,6.4,12.8v80
		c0,8.8-7.2,16-16,16H334.4c-7.4,36.5-39.7,64-78.4,64S185,484.5,177.6,448z M210.7,448c6.6,18.6,24.4,32,45.3,32s38.7-13.4,45.3-32
		H210.7z"/>
</g>
</svg>
